<?xml version="1.0" standalone="no"?>
<!DOCTYPE svg PUBLIC "-//W3C//DTD SVG 20010904//EN"
 "http://www.w3.org/TR/2001/REC-SVG-20010904/DTD/svg10.dtd">
<svg version="1.0" xmlns="http://www.w3.org/2000/svg"
 width="1536.000000pt" height="1536.000000pt" viewBox="0 0 1536.000000 1536.000000"
 preserveAspectRatio="xMidYMid meet">

<g transform="translate(0.000000,1536.000000) scale(0.100000,-0.100000)"
fill="#000000" stroke="none">
<path d="M10315 12393 c-306 -28 -682 -117 -1045 -246 -131 -47 -336 -126
-407 -158 -23 -11 -46 -19 -52 -19 -23 0 -636 -283 -976 -451 -143 -70 -296
-142 -340 -160 -83 -34 -302 -155 -417 -230 -356 -234 -540 -361 -739 -514
-78 -60 -159 -124 -178 -140 -20 -17 -56 -46 -81 -65 -25 -19 -85 -70 -135
-115 -49 -45 -121 -106 -160 -137 -200 -160 -449 -464 -556 -681 -66 -134 -77
-182 -60 -277 15 -80 7 -70 385 -536 66 -80 154 -183 196 -228 205 -216 312
-341 370 -428 34 -52 60 -75 145 -131 56 -38 109 -70 116 -71 8 -2 39 -14 69
-28 79 -36 317 -124 403 -149 39 -11 135 -38 212 -60 77 -22 262 -71 410 -108
302 -77 673 -178 810 -221 49 -15 117 -36 150 -45 33 -9 130 -42 215 -72 460
-162 657 -243 880 -361 141 -75 372 -221 368 -233 -8 -23 -128 -155 -201 -221
-178 -163 -335 -274 -607 -430 -325 -187 -938 -506 -1100 -573 -36 -15 -96
-44 -135 -65 -120 -64 -732 -300 -1084 -417 -243 -80 -850 -256 -1051 -304
-69 -17 -172 -41 -230 -55 -98 -24 -211 -46 -470 -94 -58 -11 -157 -29 -220
-41 -98 -18 -156 -21 -395 -22 -321 -2 -325 -1 -346 75 -10 35 -9 59 5 128 9
47 18 114 19 150 3 60 7 70 49 125 26 33 63 76 83 95 20 19 41 43 47 54 10 18
9 18 -13 2 -13 -9 -48 -40 -78 -69 -30 -28 -51 -43 -47 -33 4 11 2 22 -5 26
-20 13 12 55 152 203 74 78 139 149 144 156 19 32 -65 -39 -185 -155 -69 -67
-127 -120 -129 -118 -8 7 259 266 334 325 100 78 319 231 390 272 33 19 100
58 150 86 49 29 106 61 125 70 19 10 120 68 223 129 103 62 190 112 193 112 3
0 18 8 32 19 38 26 338 197 452 258 52 27 129 63 170 78 41 16 69 30 63 32 -7
3 -21 0 -32 -6 -11 -6 -30 -11 -43 -11 -13 0 -50 -16 -83 -34 -33 -19 -125
-69 -204 -111 -80 -42 -188 -103 -240 -134 -53 -32 -152 -91 -221 -131 -69
-40 -150 -87 -180 -105 -30 -18 -102 -56 -160 -85 -187 -94 -259 -136 -422
-246 -218 -149 -448 -338 -536 -443 -51 -60 -78 -69 -31 -10 54 68 289 308
308 314 10 3 69 55 132 116 63 61 136 121 164 136 28 14 88 51 135 81 92 61
91 60 195 119 39 22 99 57 135 78 100 58 684 354 743 377 174 67 236 89 267
93 69 10 324 104 349 129 l24 25 -69 -19 c-38 -10 -111 -33 -162 -49 -51 -17
-100 -31 -108 -31 -8 0 -36 -9 -62 -20 -26 -10 -92 -37 -147 -58 -55 -22 -131
-54 -170 -72 -92 -42 -459 -226 -510 -255 -22 -13 -101 -51 -175 -86 -74 -34
-172 -84 -217 -111 -45 -26 -85 -48 -89 -48 -3 0 -36 -22 -73 -48 -36 -27 -84
-59 -106 -71 l-40 -22 29 23 c16 13 82 70 146 128 63 58 161 140 216 183 118
92 366 227 496 270 25 9 71 32 102 52 30 19 57 35 59 35 9 0 432 180 457 194
14 8 50 21 80 29 30 8 100 29 155 45 55 17 126 36 158 42 31 6 57 14 57 17 0
19 -340 -46 -447 -86 -90 -34 -297 -119 -363 -149 -25 -11 -74 -33 -110 -47
-36 -15 -118 -53 -182 -86 -65 -32 -122 -59 -128 -59 -26 0 -3 23 78 76 48 32
115 80 149 106 34 27 92 63 130 80 37 17 119 60 181 96 72 41 148 75 205 92
51 16 139 44 197 63 58 20 148 45 200 57 114 26 144 46 55 36 -48 -5 -260 -47
-372 -73 -45 -11 -22 13 35 35 57 22 89 30 217 57 l70 14 -69 -5 c-44 -4 -66
-2 -62 4 8 14 -90 14 -136 0 -21 -6 -38 -14 -38 -18 0 -10 -47 -30 -70 -30
-33 0 -23 16 18 28 l37 11 -50 -4 c-49 -4 -50 -4 -20 10 17 7 55 17 85 21 35
4 65 15 83 30 16 13 67 35 115 49 48 14 98 31 112 38 23 11 21 12 -30 15 -30
2 -73 -1 -95 -7 -49 -11 -120 -25 -240 -46 -115 -20 -225 -52 -345 -102 -52
-22 -138 -56 -191 -77 -130 -49 -590 -281 -671 -337 -14 -11 -29 -19 -33 -19
-3 0 -34 -19 -67 -42 -34 -23 -68 -41 -74 -41 -7 0 -11 -4 -8 -8 2 -4 -6 -13
-18 -20 -21 -11 -22 -11 -9 4 7 10 9 17 3 17 -5 0 -15 -7 -22 -15 -7 -8 -9
-15 -5 -15 14 0 -39 -37 -85 -59 -44 -21 -44 -21 -20 -1 14 11 41 34 60 50 87
73 155 120 168 115 7 -2 10 -1 7 4 -3 6 15 24 41 42 34 23 48 28 54 19 5 -8
10 -9 14 -2 3 6 1 12 -6 14 -6 2 5 14 25 27 21 12 35 27 32 31 -3 5 0 12 6 16
8 4 9 3 5 -4 -19 -31 67 16 99 54 20 24 88 65 250 149 50 26 115 63 146 81 31
19 103 49 160 68 108 36 283 101 303 113 10 7 80 32 226 83 132 45 172 65 191
91 11 15 33 30 49 34 17 4 43 13 58 20 15 8 39 18 55 24 15 6 27 16 27 22 0
16 -72 2 -155 -30 -38 -15 -115 -38 -170 -50 -426 -96 -890 -266 -1160 -424
-27 -17 -131 -71 -230 -122 -368 -189 -502 -279 -735 -494 -296 -273 -460
-456 -572 -636 -200 -325 -262 -493 -262 -715 0 -130 10 -175 61 -275 76 -149
171 -276 362 -485 63 -69 155 -170 205 -225 108 -119 276 -282 366 -355 36
-30 85 -72 110 -95 106 -97 299 -171 545 -211 28 -4 57 -9 65 -11 8 -1 65 -7
125 -12 61 -5 157 -15 215 -21 106 -12 318 -3 530 21 364 42 608 76 705 99 44
10 118 26 165 35 325 61 1043 281 1475 453 55 21 118 45 140 52 22 7 67 26
100 42 33 16 98 45 145 65 101 41 384 179 525 255 55 30 144 77 197 105 108
57 523 325 638 413 185 141 569 506 651 619 107 148 137 206 184 356 34 109
37 127 32 197 -5 56 -17 106 -46 180 -22 57 -49 137 -61 178 -33 113 -69 199
-110 260 -20 30 -51 82 -69 116 -35 66 -87 134 -102 134 -6 0 -7 -4 -4 -10 3
-6 1 -10 -4 -10 -6 0 -11 7 -11 15 0 8 -9 25 -20 37 -11 13 -30 35 -43 49 -12
14 -33 45 -46 70 -13 24 -30 51 -36 59 -7 8 -20 33 -29 55 -10 22 -25 49 -35
60 -10 11 -29 40 -43 65 -13 25 -35 63 -47 84 -105 183 -476 448 -911 650
-104 48 -144 66 -335 145 -55 23 -109 46 -120 51 -11 5 -54 20 -95 34 -41 13
-124 43 -185 66 -60 23 -162 59 -225 81 -63 21 -241 81 -395 133 -154 52 -320
106 -370 119 -49 13 -146 41 -215 61 -69 21 -246 68 -395 106 -358 91 -388 99
-403 114 -28 27 77 132 284 283 55 40 134 103 176 141 72 64 156 127 348 262
487 342 579 399 912 568 128 66 258 134 288 152 67 40 561 290 574 290 5 0 84
36 176 80 92 44 203 91 246 104 43 13 158 54 254 91 450 172 1003 333 1325
385 39 6 86 15 105 20 79 19 261 40 345 40 50 1 136 5 193 10 117 11 135 7
127 -24 -103 -358 -250 -588 -620 -964 -144 -148 -237 -229 -410 -358 -263
-197 -577 -390 -882 -543 -306 -154 -541 -234 -766 -262 -172 -21 -260 1 -357
88 -49 44 -67 75 -131 226 -46 110 -114 159 -167 120 -22 -16 -28 -30 -30 -68
-3 -49 26 -156 69 -251 12 -27 30 -69 41 -93 11 -24 49 -89 86 -144 37 -56 78
-119 92 -142 34 -56 72 -106 154 -200 38 -44 94 -109 125 -145 102 -118 194
-210 240 -240 47 -29 167 -82 366 -160 l109 -42 221 5 c160 4 236 10 280 22
157 43 322 100 394 135 45 22 87 37 94 34 41 -15 505 274 679 425 110 94 348
333 440 441 130 153 316 440 368 570 12 30 26 64 30 75 22 53 44 138 55 205 4
25 24 74 45 110 92 158 129 272 131 396 l1 79 13 -40 c8 -24 12 -69 9 -115 -3
-60 -2 -69 6 -45 6 17 10 98 10 180 -1 223 -29 339 -120 491 -32 54 -84 126
-115 158 -36 37 -74 92 -104 150 -42 82 -105 190 -166 286 -12 19 -54 87 -93
150 -39 63 -83 134 -97 158 -15 24 -25 45 -22 48 6 6 38 -39 65 -92 11 -22 27
-46 35 -53 8 -6 -1 21 -21 61 -19 40 -50 106 -67 147 -35 78 -76 129 -134 166
-20 12 -61 44 -91 70 -90 78 -303 169 -469 201 -217 42 -342 54 -539 52 -108
-1 -215 -3 -237 -5z m-365 -163 c0 -5 -5 -10 -11 -10 -5 0 -7 5 -4 10 3 6 8
10 11 10 2 0 4 -4 4 -10z m-130 -80 c0 -5 -4 -10 -10 -10 -5 0 -10 5 -10 10 0
6 5 10 10 10 6 0 10 -4 10 -10z m-150 -30 c0 -5 -7 -10 -16 -10 -8 0 -12 5 -9
10 3 6 10 10 16 10 5 0 9 -4 9 -10z m115 0 c-3 -5 -11 -10 -16 -10 -6 0 -7 5
-4 10 3 6 11 10 16 10 6 0 7 -4 4 -10z m-50 -30 c-3 -5 -18 -9 -33 -9 l-27 1
30 8 c17 4 31 8 33 9 2 0 0 -3 -3 -9z m-295 -10 c0 -5 -10 -10 -22 -9 -22 0
-22 1 -3 9 11 5 21 9 23 9 1 1 2 -3 2 -9z m220 -7 c-8 -3 -66 -25 -129 -50
-62 -24 -115 -42 -118 -40 -8 9 213 95 242 95 14 0 15 -1 5 -5z m1676 -41
c-16 -2 -32 0 -37 5 -5 5 7 7 29 4 34 -5 35 -6 8 -9z m360 -44 c53 -57 53 -78
1 -23 -32 32 -57 61 -57 62 0 8 37 -17 56 -39z m-2470 -17 c-19 -36 -36 -39
-53 -12 -11 17 -8 22 20 39 40 24 53 13 33 -27z m36 27 c-7 -7 -12 -8 -12 -2
0 14 12 26 19 19 2 -3 -1 -11 -7 -17z m1921 15 c-7 -2 -19 -2 -25 0 -7 3 -2 5
12 5 14 0 19 -2 13 -5z m-2033 -63 c0 -6 -12 -15 -27 -21 -55 -22 -73 -33 -73
-42 0 -5 15 -7 35 -4 33 5 49 -6 23 -16 -17 -6 -78 3 -77 12 3 27 22 46 65 61
27 9 50 18 52 19 1 0 2 -4 2 -9z m135 0 c-3 -5 -11 -10 -16 -10 -6 0 -7 5 -4
10 3 6 11 10 16 10 6 0 7 -4 4 -10z m-72 -19 c17 5 33 7 35 4 6 -6 -47 -26
-62 -23 -6 1 -21 -3 -33 -10 -27 -15 -30 -6 -6 20 10 11 20 15 26 9 5 -5 21
-5 40 0z m-193 -18 c0 -5 -23 -20 -50 -35 -28 -16 -49 -33 -48 -40 3 -12 -86
-78 -105 -78 -16 0 24 40 58 58 25 13 27 16 12 21 -13 5 -1 16 50 43 70 39 83
43 83 31z m-26 -51 c-6 -4 -18 -18 -27 -32 -11 -16 -17 -19 -17 -9 0 18 39 63
48 54 4 -3 2 -9 -4 -13z m-219 -22 c3 -6 -1 -7 -9 -4 -9 3 -17 1 -17 -5 -1 -6
-2 -15 -3 -20 -2 -15 -54 -52 -60 -43 -3 5 6 14 19 20 14 7 25 18 25 25 0 14
19 37 31 37 4 0 11 -4 14 -10z m292 4 c-7 -7 -77 -23 -77 -18 0 7 43 23 64 23
11 1 17 -2 13 -5z m-207 -8 c0 -6 -70 -46 -81 -46 -18 0 3 22 35 36 32 14 46
17 46 10z m1165 -6 c-11 -5 -31 -9 -45 -9 -20 -1 -22 1 -10 9 8 5 29 9 45 9
26 0 27 -2 10 -9z m-108 -26 c-3 -3 -12 -4 -19 -1 -8 3 -5 6 6 6 11 1 17 -2
13 -5z m-1147 -38 c0 -8 -7 -16 -15 -20 -8 -3 -12 -12 -9 -21 5 -11 -1 -15
-19 -15 -14 0 -38 -11 -54 -24 -33 -27 -78 -52 -150 -82 -48 -20 -51 -20 -40
-2 7 10 29 23 50 29 46 12 117 48 117 58 0 4 11 13 25 19 14 6 25 18 25 26 0
9 12 22 28 30 34 19 42 19 42 2z m-96 -12 c25 -10 19 -20 -24 -43 -50 -26 -53
-26 -40 -2 14 26 13 29 -7 26 -33 -3 -75 -18 -120 -42 -25 -13 -48 -21 -52
-17 -3 4 -1 9 6 11 7 2 28 15 48 29 20 13 42 24 50 24 8 0 17 5 20 10 7 11 94
14 119 4z m963 -40 c-3 -3 -12 -4 -19 -1 -8 3 -5 6 6 6 11 1 17 -2 13 -5z
m-87 -29 c-46 -18 -64 -17 -25 0 17 8 37 14 45 14 8 0 -1 -7 -20 -14z m1775
-6 c224 -24 347 -61 418 -128 27 -25 58 -58 68 -73 l20 -27 -48 21 c-26 11
-57 27 -68 33 -11 7 -58 25 -105 40 -47 14 -94 30 -105 35 -75 30 -71 27 -51
36 10 4 27 2 36 -4 14 -9 20 -8 24 5 5 13 -1 15 -41 10 -33 -3 -50 -1 -58 8
-35 46 -576 46 -835 0 -87 -15 -127 -19 -119 -10 3 2 32 9 64 15 172 30 262
41 375 46 69 4 127 8 128 9 6 6 192 -4 297 -16z m-2759 -4 c-11 -8 -26 -15
-34 -15 -7 0 -37 -15 -65 -33 -63 -40 -113 -67 -122 -67 -4 0 9 16 28 35 23
23 41 33 51 29 11 -4 16 -2 14 7 -2 8 5 14 14 14 10 0 23 6 30 13 6 6 22 12
34 12 13 0 26 5 29 10 3 6 14 10 23 10 15 -1 15 -2 -2 -15z m-150 -14 c-3 -5
-18 -12 -33 -16 -16 -3 -44 -19 -63 -34 -36 -29 -100 -48 -100 -31 0 10 14 14
39 11 7 -2 10 2 7 8 -4 5 -2 12 4 16 5 3 10 1 10 -6 0 -8 4 -7 13 3 21 28 138
75 123 49z m1064 -1 c-8 -5 -19 -10 -25 -10 -5 0 -3 5 5 10 8 5 20 10 25 10 6
0 3 -5 -5 -10z m963 -47 c-7 -2 -21 -2 -30 0 -10 3 -4 5 12 5 17 0 24 -2 18
-5z m894 0 c-20 -2 -52 -2 -70 0 -17 2 0 4 38 4 39 0 53 -2 32 -4z m-977 -13
c-14 -4 -34 -8 -45 -8 -16 0 -15 2 5 8 14 4 34 8 45 8 16 0 15 -2 -5 -8z
m1070 1 c0 -4 -11 -6 -25 -3 -14 2 -25 6 -25 8 0 2 11 4 25 4 14 0 25 -4 25
-9z m-3221 -36 c-3 -2 -35 -22 -71 -42 -108 -63 -159 -96 -205 -135 -44 -38
-77 -50 -67 -25 6 18 45 45 114 81 30 16 64 37 75 47 11 10 36 25 55 33 19 8
48 24 65 35 16 11 31 18 34 16 2 -3 2 -7 0 -10z m2026 9 c-35 -14 -189 -54
-192 -50 -5 4 99 38 152 49 26 6 53 7 40 1z m-1955 -13 c0 -11 -25 -21 -50
-21 -20 0 -72 -39 -53 -40 6 0 15 5 18 10 3 6 17 10 30 10 23 0 24 -2 13 -25
-6 -14 -15 -25 -20 -25 -12 0 -10 14 4 28 9 9 9 12 1 12 -7 0 -18 -12 -25 -27
-7 -16 -23 -32 -36 -38 -13 -6 -20 -16 -17 -24 4 -10 -2 -12 -25 -8 -17 4 -30
2 -30 -3 0 -6 -7 -10 -15 -10 -19 0 -19 9 2 32 9 10 26 18 39 18 25 0 55 35
47 55 -4 13 38 42 82 56 29 10 35 10 35 0z m177 3 c-3 -3 -12 -4 -19 -1 -8 3
-5 6 6 6 11 1 17 -2 13 -5z m-94 -42 c-28 -15 -65 -35 -82 -45 -17 -10 -31
-13 -31 -7 0 5 4 10 9 10 5 0 22 11 38 24 29 24 76 44 103 45 8 0 -8 -12 -37
-27z m822 18 c-3 -5 -11 -10 -16 -10 -6 0 -7 5 -4 10 3 6 11 10 16 10 6 0 7
-4 4 -10z m-899 -22 c-10 -6 -20 -7 -24 -3 -9 8 20 25 31 18 5 -3 2 -10 -7
-15z m854 8 c0 -2 -7 -7 -16 -10 -8 -3 -12 -2 -9 4 6 10 25 14 25 6z m889 -10
c-8 -8 -192 -66 -196 -62 -2 2 17 12 44 21 26 10 64 23 83 31 33 12 79 19 69
10z m-1889 -41 c-7 -8 -16 -15 -21 -15 -5 0 -9 7 -9 15 0 9 9 15 21 15 18 0
19 -2 9 -15z m870 0 c0 -6 -169 -85 -179 -85 -9 1 48 32 114 62 70 31 65 29
65 23z m2669 -16 c19 -7 44 -29 63 -58 l32 -46 -39 31 c-22 17 -57 41 -77 53
-21 12 -38 25 -38 27 0 7 26 4 59 -7z m-3459 -7 c0 -10 -50 -35 -57 -28 -3 2
8 11 24 20 34 18 33 18 33 8z m1585 -12 c-11 -4 -56 -22 -100 -39 -44 -17
-120 -47 -170 -67 -49 -20 -133 -53 -185 -74 -52 -20 -111 -44 -130 -52 -142
-64 -244 -107 -247 -105 -15 16 779 346 832 346 l20 0 -20 -9z m-1755 -8 c0
-8 -77 -82 -86 -82 -2 0 -34 -20 -71 -45 -37 -25 -71 -45 -76 -45 -16 0 13 29
36 36 20 6 52 31 145 111 38 33 52 40 52 25z m3559 -27 c76 -28 127 -55 165
-90 22 -19 46 -35 54 -35 9 0 13 -7 9 -20 -3 -11 -1 -23 4 -26 15 -9 10 -24
-7 -24 -10 0 -14 6 -11 14 12 32 -19 38 -80 16 -90 -32 -93 -33 -93 -22 0 6
-17 9 -37 7 -29 -2 -31 -1 -11 4 20 4 25 10 19 20 -5 8 -16 11 -30 6 -13 -4
-21 -2 -21 5 0 6 -10 10 -22 8 -13 -2 -22 -9 -20 -16 1 -6 -5 -12 -13 -12 -8
0 -15 7 -15 15 0 8 5 15 11 15 5 0 8 4 4 10 -3 5 -12 7 -20 3 -9 -3 -22 0 -30
7 -11 9 -15 9 -15 1 0 -7 -10 -9 -27 -5 -26 6 -27 5 -9 -8 30 -23 2 -32 -39
-12 -33 15 -37 15 -53 1 -17 -15 -231 -56 -292 -56 -14 0 -52 -6 -85 -15 -33
-8 -87 -20 -120 -26 -80 -16 -152 -36 -255 -71 -47 -15 -121 -35 -165 -44 -81
-16 -291 -81 -310 -96 -6 -4 -125 -46 -265 -92 -140 -46 -270 -92 -288 -101
-19 -10 -67 -28 -109 -42 -78 -25 -128 -48 -153 -69 -8 -7 -57 -31 -108 -54
-135 -60 -263 -121 -469 -223 -100 -49 -185 -89 -189 -88 -4 1 -10 -2 -13 -7
-12 -16 -128 -82 -261 -147 -241 -119 -305 -154 -330 -184 -14 -16 -45 -40
-70 -52 -91 -46 -169 -102 -184 -131 -8 -16 -10 -29 -5 -29 13 0 93 45 134 75
51 37 165 94 170 85 5 -9 -46 -50 -62 -50 -4 0 -33 -17 -63 -37 -30 -20 -75
-48 -100 -61 -25 -13 -50 -29 -55 -37 -14 -17 -145 -86 -145 -76 0 13 33 39
54 42 11 2 24 17 29 34 5 17 16 38 25 48 26 30 7 28 -28 -3 -19 -17 -63 -49
-99 -72 -36 -24 -67 -46 -69 -50 -2 -4 -19 -12 -38 -18 -50 -17 -198 -110
-309 -194 -36 -27 -38 -27 -17 -4 13 14 46 41 73 59 27 19 49 38 49 42 0 5 -5
5 -12 1 -7 -5 -8 -3 -4 5 5 7 14 10 22 7 7 -3 19 1 26 7 7 7 39 32 70 55 31
23 60 47 64 54 5 7 -3 5 -16 -4 -14 -10 -38 -25 -55 -34 -16 -9 -41 -26 -55
-38 -22 -19 -23 -19 -10 -1 8 11 27 35 44 53 46 50 18 38 -39 -17 -27 -27 -81
-65 -120 -86 -38 -21 -86 -50 -105 -64 -70 -52 -149 -119 -144 -123 7 -8 -98
-100 -191 -167 -109 -79 -210 -191 -271 -303 -25 -46 -50 -87 -55 -92 -41 -44
61 160 111 223 100 123 199 223 285 286 22 17 65 51 95 77 30 26 65 55 76 65
12 10 37 33 56 51 19 18 44 34 56 37 12 2 45 23 72 46 69 58 66 65 -5 15 -16
-12 -46 -28 -66 -37 -30 -14 -116 -83 -218 -176 -13 -12 -40 -30 -60 -40 -20
-10 -38 -20 -41 -23 -3 -3 -20 -16 -37 -29 -24 -16 -33 -18 -33 -9 0 14 106
108 148 132 11 6 52 34 91 61 38 28 123 84 188 126 65 42 159 102 208 134 50
32 124 84 165 115 83 63 208 150 214 150 2 0 55 32 117 71 62 39 120 74 129
77 8 3 23 12 33 20 9 8 20 12 24 9 3 -4 13 2 20 13 8 11 22 19 31 18 9 -2 16
3 15 9 -2 7 12 20 30 29 29 16 31 16 18 1 -7 -10 -10 -17 -7 -17 6 0 64 38 76
50 10 10 108 60 116 60 5 0 0 -7 -10 -15 -11 -8 -16 -18 -13 -22 4 -3 17 3 30
14 12 11 28 18 36 15 8 -2 11 0 8 5 -3 5 8 14 25 21 l30 11 -27 -25 c-33 -30
-103 -65 -107 -53 -5 14 -235 -116 -288 -161 -24 -22 -41 -42 -38 -45 3 -3 19
6 34 21 35 32 109 84 121 84 5 0 33 16 62 35 48 30 56 32 66 19 10 -14 15 -12
42 13 17 16 79 53 137 83 181 93 249 128 301 151 28 13 57 29 65 36 9 6 65 31
125 54 115 44 185 84 193 109 3 9 -6 5 -22 -9 -28 -26 -48 -24 -21 2 22 22 19
28 -12 22 -27 -6 -27 -6 -8 10 67 56 562 281 910 415 83 32 191 73 241 93 98
38 178 61 354 101 63 15 129 31 145 35 17 5 50 12 75 16 25 4 61 11 80 15 84
21 214 41 320 49 152 12 452 3 499 -14z m-3729 10 c0 -8 -119 -85 -132 -85 -7
0 -30 -11 -50 -25 -20 -14 -45 -25 -56 -25 -10 0 -33 -11 -52 -25 -50 -37 -59
-30 -14 10 21 19 47 34 57 35 17 0 98 41 125 63 14 11 103 55 115 56 4 1 7 -1
7 -4z m4100 -16 c0 -6 -4 -7 -10 -4 -5 3 -10 11 -10 16 0 6 5 7 10 4 6 -3 10
-11 10 -16z m-199 -6 c13 -16 12 -17 -3 -4 -17 13 -22 21 -14 21 2 0 10 -8 17
-17z m260 -156 c52 -86 106 -232 120 -322 13 -81 5 -323 -11 -339 -5 -5 -10
-18 -10 -27 0 -23 -46 -171 -73 -234 -33 -78 -162 -327 -204 -393 -78 -124
-137 -208 -177 -253 -226 -251 -232 -257 -396 -414 -195 -187 -332 -291 -521
-393 -41 -22 -126 -70 -189 -107 -130 -75 -442 -230 -480 -239 l-25 -6 25 12
c159 75 623 324 729 392 330 211 761 650 1006 1026 77 118 187 340 235 475 18
50 36 99 40 110 41 112 52 299 24 433 -22 108 -77 233 -144 327 -73 103 -82
121 -31 65 23 -25 60 -75 82 -113z m-4376 133 c-3 -5 -1 -10 4 -10 6 0 11 -4
11 -10 0 -5 -7 -7 -15 -4 -9 4 -32 -6 -52 -22 -35 -27 -86 -62 -143 -100 -14
-9 -8 -1 12 18 20 19 49 40 65 48 36 18 63 41 63 52 0 5 -12 0 -26 -11 -15
-12 -31 -21 -37 -21 -16 0 41 41 63 45 11 2 28 8 37 14 23 13 26 13 18 1z
m4159 -40 c5 0 5 8 2 18 -4 9 7 3 24 -15 16 -18 30 -35 30 -39 0 -4 7 -16 17
-26 9 -10 11 -18 5 -18 -6 0 -12 4 -14 8 -1 5 -25 24 -52 43 -27 19 -52 41
-54 49 -4 11 0 11 15 -2 11 -10 23 -18 27 -18z m-3174 -25 c-52 -24 -126 -60
-165 -79 -38 -19 -71 -34 -73 -31 -6 6 303 153 323 154 6 0 -33 -20 -85 -44z
m-825 25 c-3 -5 -13 -10 -21 -10 -8 0 -12 5 -9 10 3 6 13 10 21 10 8 0 12 -4
9 -10z m-325 -45 c0 -2 -10 -9 -22 -15 -22 -11 -22 -10 -4 4 21 17 26 19 26
11z m276 -18 c-11 -7 -26 -19 -35 -27 -32 -30 -81 -61 -81 -52 0 6 12 20 28
31 16 13 21 20 12 20 -19 0 -50 -23 -50 -37 0 -12 -116 -96 -147 -106 -11 -4
-27 -13 -33 -21 -13 -16 -30 -20 -30 -7 0 4 30 25 68 46 37 21 77 48 90 59 26
24 30 47 5 25 -25 -20 -95 -60 -99 -55 -6 6 67 61 99 75 15 6 27 17 27 23 0 6
7 8 16 5 8 -3 25 -1 37 6 20 10 75 25 102 26 6 1 1 -5 -9 -11z m3714 -7 c0 -5
-9 -10 -20 -10 -11 0 -20 5 -20 10 0 6 9 10 20 10 11 0 20 -4 20 -10z m-4045
-30 c-3 -5 -11 -10 -16 -10 -6 0 -7 5 -4 10 3 6 11 10 16 10 6 0 7 -4 4 -10z
m4492 -26 c-9 -9 -27 6 -27 22 0 13 2 13 16 -1 9 -9 14 -18 11 -21z m-4458
-60 c-73 -76 -81 -83 -133 -124 -25 -19 -45 -41 -45 -47 -1 -7 -5 -13 -11 -13
-5 0 -31 -16 -56 -35 -66 -51 -209 -134 -241 -140 -26 -5 -26 -5 -9 7 36 23
114 107 121 128 3 11 10 20 14 20 4 0 16 7 27 15 18 13 17 14 -8 7 -30 -8 -96
-61 -177 -143 -31 -31 -70 -65 -88 -75 -18 -10 -29 -22 -26 -27 3 -6 1 -7 -5
-3 -16 10 -62 -11 -83 -38 -10 -13 -40 -36 -66 -52 -27 -15 -50 -31 -53 -35
-3 -4 -19 -11 -35 -15 -17 -3 -37 -12 -45 -19 -8 -7 -26 -16 -40 -20 -36 -11
-123 -68 -178 -117 l-47 -42 50 53 c52 54 200 158 244 171 38 11 102 48 136
79 49 45 104 83 112 78 4 -3 24 8 43 24 23 20 29 29 18 29 -9 0 -23 -8 -30
-19 -7 -10 -17 -19 -23 -20 -28 -3 -65 -22 -86 -43 -13 -14 -60 -45 -104 -70
-98 -55 -153 -83 -140 -71 24 22 145 103 154 103 6 0 28 15 48 33 59 53 273
208 273 198 0 -11 -109 -101 -123 -101 -6 0 -8 -3 -5 -6 11 -10 89 36 121 72
18 19 36 34 40 34 5 0 27 13 50 29 23 15 60 38 82 50 132 71 177 98 191 119 8
12 22 22 30 22 8 0 28 7 44 15 17 9 30 12 30 7 0 -10 -44 -32 -64 -32 -12 0
-71 -60 -71 -73 0 -3 -22 -20 -50 -38 -50 -31 -195 -166 -195 -182 0 -4 41 20
90 54 50 34 90 68 90 76 0 7 4 13 9 13 5 0 28 18 51 40 23 22 46 40 51 40 5 0
9 6 9 14 0 8 9 17 20 21 10 3 42 28 71 56 70 68 85 62 18 -7z m-85 25 c-3 -6
-30 -22 -59 -35 -29 -12 -85 -44 -125 -69 -40 -25 -74 -44 -76 -42 -3 2 38 32
90 66 117 76 188 109 170 80z m3686 1 c0 -5 -4 -10 -9 -10 -5 0 -16 -3 -25 -6
-9 -3 -16 -1 -16 4 0 9 16 17 43 21 4 0 7 -3 7 -9z m-93 -26 c-3 -3 -12 -4
-19 -1 -8 3 -5 6 6 6 11 1 17 -2 13 -5z m912 -44 c5 -54 -18 -181 -61 -335
-61 -217 -209 -496 -368 -690 -62 -76 -226 -232 -530 -505 -106 -95 -234 -196
-297 -235 -103 -63 -196 -115 -200 -112 -2 2 54 38 124 80 71 42 184 122 253
180 134 110 534 488 594 559 132 159 211 277 285 428 29 58 58 116 65 130 19
36 84 245 96 309 5 30 15 71 20 91 7 28 6 49 -5 86 -18 60 -18 56 3 52 11 -2
18 -15 21 -38z m-3619 16 c0 -2 -7 -7 -16 -10 -8 -3 -12 -2 -9 4 6 10 25 14
25 6z m659 -30 c-10 -9 -89 -46 -89 -41 0 6 72 44 84 45 5 0 7 -2 5 -4z m3375
-331 c41 -141 53 -211 37 -201 -6 4 -11 2 -11 -3 0 -6 5 -11 11 -11 25 0 -6
-218 -55 -385 -13 -44 -29 -101 -36 -127 -7 -25 -22 -61 -33 -80 -12 -18 -38
-71 -58 -118 -234 -540 -292 -630 -609 -949 -58 -58 -128 -124 -155 -146 -91
-73 -169 -131 -208 -154 -20 -12 -35 -26 -32 -31 8 -12 -72 -80 -165 -141 -47
-30 -135 -88 -196 -127 -61 -40 -135 -82 -164 -93 -28 -11 -74 -31 -101 -44
-26 -14 -58 -25 -69 -25 -12 0 -42 -11 -68 -25 -46 -24 -102 -33 -102 -16 0
10 78 41 103 41 21 0 236 96 257 115 8 7 55 36 104 64 49 28 108 65 130 82 77
56 129 94 152 109 67 44 253 181 264 195 7 8 41 35 75 60 35 24 91 74 126 111
35 37 78 81 94 98 93 94 278 337 351 461 73 122 101 186 164 377 11 32 31 75
45 95 14 21 25 43 25 48 0 6 11 33 24 61 56 116 102 295 112 434 2 36 6 85 8
110 7 69 2 88 -120 479 -7 24 -11 48 -8 53 7 11 52 -123 108 -317z m-4894 280
c-7 -8 -17 -15 -23 -15 -6 0 -2 7 9 15 25 19 30 19 14 0z m1416 -3 c-3 -5 -58
-32 -123 -61 -65 -29 -152 -69 -193 -89 -93 -46 -98 -48 -80 -29 14 15 376
187 393 187 5 0 6 -4 3 -8z m3464 -58 c12 -19 20 -38 17 -40 -3 -3 -15 12 -27
35 -25 50 -19 54 10 5z m-4280 2 c0 -2 -7 -7 -16 -10 -8 -3 -12 -2 -9 4 6 10
25 14 25 6z m2245 -25 c-10 -9 -162 -65 -220 -81 -16 -5 -55 -18 -85 -31 -30
-12 -108 -40 -172 -61 -74 -25 -126 -49 -140 -64 -13 -13 -31 -24 -40 -24 -10
0 -35 -6 -55 -14 -21 -7 -60 -19 -88 -25 -27 -7 -86 -30 -130 -53 -80 -40
-173 -73 -181 -65 -3 3 8 8 23 11 15 4 73 29 128 55 179 87 343 156 450 191
39 12 75 26 80 31 6 4 29 13 50 18 32 8 137 42 200 65 13 4 12 4 97 31 83 26
96 29 83 16z m-2305 -6 c0 -8 -101 -57 -107 -52 -2 3 20 16 49 30 63 30 58 28
58 22z m3970 -151 c-53 -247 -217 -556 -429 -806 -88 -104 -95 -112 -207 -219
-84 -80 -183 -166 -339 -294 -54 -44 -126 -104 -161 -133 -102 -85 -72 -46 39
52 97 85 216 193 392 355 142 131 175 164 175 174 0 5 18 25 39 44 85 74 258
327 330 483 55 119 161 421 161 459 0 10 3 21 8 25 16 17 12 -48 -8 -140z
m-129 103 c-8 -8 -11 -7 -11 4 0 9 3 19 7 23 4 4 9 2 11 -4 3 -7 -1 -17 -7
-23z m-3985 -32 c-11 -8 -24 -15 -30 -15 -5 0 -1 7 10 15 10 8 24 14 29 14 6
0 1 -6 -9 -14z m4311 -37 c-2 -13 -4 -5 -4 17 -1 22 1 32 4 23 2 -10 2 -28 0
-40z m-347 17 c0 -11 -32 -67 -36 -63 -6 7 19 68 28 68 4 0 8 -2 8 -5z m-4040
-25 c-24 -19 -40 -25 -40 -15 0 5 51 34 60 34 3 0 -6 -8 -20 -19z m680 15 c0
-3 -73 -42 -162 -86 -194 -96 -360 -188 -454 -250 -38 -25 -87 -56 -109 -69
-22 -14 -88 -59 -147 -102 -59 -42 -117 -82 -129 -88 -12 -7 -66 -47 -120 -89
-54 -42 -128 -96 -164 -121 -35 -25 -74 -60 -85 -79 -12 -18 -24 -31 -27 -27
-4 3 -1 12 5 18 26 26 10 28 -22 3 -19 -15 -36 -36 -38 -48 -2 -12 -9 -21 -16
-19 -6 1 -12 -7 -12 -18 0 -12 -5 -17 -14 -14 -14 5 -23 -1 -95 -61 -20 -17
-48 -37 -63 -44 -15 -8 -30 -22 -33 -32 -7 -21 -144 -125 -161 -121 -6 1 -19
-9 -28 -23 -9 -14 -23 -25 -30 -25 -17 0 -67 -65 -58 -75 4 -5 1 -5 -6 -1 -7
4 -15 1 -18 -8 -3 -8 -31 -32 -62 -53 -82 -56 -92 -59 -43 -16 24 21 53 49 65
62 62 72 171 170 246 221 19 14 83 66 142 116 59 51 116 95 127 99 12 3 21 13
21 21 0 8 8 18 18 21 23 9 135 94 145 110 4 7 12 13 17 13 6 0 45 26 88 58 44
31 89 64 102 72 12 8 32 22 44 31 11 9 100 69 196 132 96 64 200 134 230 155
62 42 259 151 484 266 144 73 166 82 166 71z m-749 -53 c-37 -26 -147 -86
-136 -74 11 11 146 91 155 91 3 0 -6 -8 -19 -17z m-706 -42 c-25 -27 -103 -72
-118 -67 -6 2 11 16 38 32 28 15 59 34 70 41 28 18 31 17 10 -6z m4766 -63
c-10 -9 -11 -8 -5 6 3 10 9 15 12 12 3 -3 0 -11 -7 -18z m-2791 -12 c-14 -8
-32 -14 -40 -14 -8 0 -1 6 15 14 40 18 57 18 25 0z m-2120 -15 c0 -5 -5 -10
-11 -10 -5 0 -7 5 -4 10 3 6 8 10 11 10 2 0 4 -4 4 -10z m-50 -21 l-25 -21 30
6 30 6 -25 -15 c-29 -17 -44 -19 -35 -5 11 19 -14 10 -27 -9 -16 -22 -86 -66
-94 -58 -3 2 11 14 30 26 19 12 36 26 38 31 2 5 19 20 38 34 43 30 76 35 40 5z
m2204 6 c-4 -8 -10 -15 -15 -15 -4 0 -6 7 -3 15 4 8 10 15 15 15 4 0 6 -7 3
-15z m-37 -1 c-3 -3 -12 -4 -19 -1 -8 3 -5 6 6 6 11 1 17 -2 13 -5z m3340 -26
c-3 -8 -6 -5 -6 6 -1 11 2 17 5 13 3 -3 4 -12 1 -19z m-3500 -15 c-71 -54 -91
-67 -111 -69 -12 -1 -66 -25 -121 -53 -101 -51 -125 -59 -125 -41 0 6 5 10 11
10 10 0 89 38 169 81 19 10 44 19 56 19 11 0 29 8 40 18 19 18 91 58 108 61 5
0 -7 -11 -27 -26z m69 11 c-21 -12 -25 -18 -16 -24 9 -6 7 -11 -8 -19 -27 -14
-39 -14 -25 0 6 6 9 17 7 24 -5 12 30 33 56 34 8 0 2 -7 -14 -15z m2852 -14
c-5 -17 -15 -33 -21 -37 -7 -4 -8 0 -3 13 5 10 11 27 13 37 3 9 9 17 14 17 4
0 3 -14 -3 -30z m-2802 5 c-25 -19 -41 -19 -24 0 7 8 20 14 28 14 11 0 10 -3
-4 -14z m2727 -20 c-3 -9 -8 -14 -10 -11 -3 3 -2 9 2 15 9 16 15 13 8 -4z
m437 -78 c-12 -31 -26 -60 -32 -63 -6 -4 -9 -3 -7 2 2 5 15 37 29 72 31 76 39
67 10 -11z m-3295 47 c-11 -9 -33 -22 -49 -31 -37 -20 -23 3 18 28 37 23 59
25 31 3z m3525 -49 c0 -30 -3 -55 -8 -55 -4 0 -6 24 -5 53 1 59 1 57 8 57 3 0
5 -25 5 -55z m-5280 41 c0 -1 -31 -24 -70 -50 -38 -25 -70 -44 -70 -41 0 4
131 95 137 95 2 0 3 -2 3 -4z m4633 -62 c-29 -60 -89 -154 -100 -154 -3 0 2
10 11 23 9 12 37 62 62 111 50 97 71 113 27 20z m-5053 41 c-7 -9 -15 -13 -17
-11 -7 7 7 26 19 26 6 0 6 -6 -2 -15z m19 -45 c-60 -55 -90 -68 -43 -19 25 28
81 69 93 69 3 0 -20 -22 -50 -50z m-99 19 c0 -11 -3 -18 -8 -15 -4 2 -16 -2
-27 -10 -13 -10 -15 -14 -4 -14 8 0 -3 -10 -23 -23 -84 -51 -178 -119 -179
-130 0 -15 -112 -110 -184 -158 -30 -20 -52 -38 -49 -41 3 -3 -1 -5 -9 -4 -19
2 -106 -74 -175 -153 -57 -66 -51 -64 47 17 48 38 71 50 71 37 0 -2 -40 -36
-90 -76 -49 -39 -90 -75 -90 -80 0 -5 -7 -9 -15 -9 -45 0 15 74 240 295 176
174 263 250 285 251 18 1 119 65 168 106 39 33 42 34 42 7z m40 11 c0 -5 -4
-10 -10 -10 -5 0 -10 5 -10 10 0 6 5 10 10 10 6 0 10 -4 10 -10z m2130 0 c0
-5 -6 -10 -12 -10 -7 0 -57 -22 -111 -48 -116 -57 -103 -36 15 24 86 44 108
51 108 34z m330 -34 c0 -8 -112 -56 -131 -56 -10 0 -21 -4 -24 -10 -3 -5 -12
-10 -18 -10 -17 1 19 21 93 52 66 27 80 31 80 24z m3267 -58 c-3 -8 -6 -5 -6
6 -1 11 2 17 5 13 3 -3 4 -12 1 -19z m-294 -90 c-84 -186 -255 -452 -353 -548
-3 -3 -58 -66 -122 -141 -103 -120 -260 -270 -347 -333 -16 -11 -80 -64 -143
-116 -62 -53 -131 -110 -153 -127 -62 -48 -259 -165 -375 -223 -113 -56 -126
-55 -20 3 93 50 266 153 330 197 49 34 126 96 350 287 360 306 661 677 826
1019 51 105 57 91 7 -18z m-5483 67 c-26 -32 -151 -127 -158 -121 -4 4 1 12
11 17 10 6 45 34 80 64 59 51 93 72 67 40z m1870 6 c0 -5 -7 -14 -15 -21 -16
-14 -18 -10 -9 14 6 17 24 22 24 7z m40 5 c0 -3 -4 -8 -10 -11 -5 -3 -10 -1
-10 4 0 6 5 11 10 11 6 0 10 -2 10 -4z m410 0 c0 -5 -59 -40 -82 -49 -35 -13
-17 3 30 27 52 28 52 28 52 22z m-509 -37 c-13 -11 -26 -17 -29 -14 -7 6 29
34 43 34 6 0 -1 -9 -14 -20z m3949 -41 c-7 -29 -19 -67 -27 -84 -8 -17 -13
-35 -11 -40 11 -35 -252 -544 -350 -674 -18 -25 -69 -94 -114 -155 -44 -60
-120 -155 -168 -210 -107 -122 -317 -327 -383 -375 -26 -19 -98 -74 -160 -121
-139 -106 -284 -195 -447 -272 -69 -32 -133 -63 -144 -69 -10 -5 -89 -38 -175
-72 -141 -57 -241 -86 -241 -70 0 15 31 33 66 40 80 15 430 169 619 272 89 49
216 132 307 201 26 20 89 68 140 108 171 130 375 338 513 523 27 36 52 67 56
70 24 19 145 182 194 260 71 116 235 436 235 460 0 9 14 50 30 91 17 41 38 98
46 127 20 68 30 60 14 -10z m-773 -85 c-25 -33 -53 -65 -63 -73 -10 -8 9 20
41 62 33 42 61 75 63 73 2 -2 -16 -30 -41 -62z m-5152 7 c-3 -5 -12 -10 -20
-10 -7 0 -15 -7 -19 -15 -3 -8 -11 -15 -17 -15 -7 0 -2 11 11 25 23 24 58 36
45 15z m2160 -12 c-11 -6 -32 -20 -47 -30 -16 -11 -28 -15 -28 -10 0 13 61 52
80 52 10 -1 9 -4 -5 -12z m-105 -62 c-18 -17 -250 -140 -250 -133 0 7 245 145
260 147 2 0 -2 -6 -10 -14z m-2162 -8 c-7 -7 -22 -20 -32 -28 -18 -14 -19 -14
-8 7 11 20 26 30 45 32 5 1 2 -5 -5 -11z m5136 -71 c-22 -24 -41 -42 -43 -40
-5 3 70 83 77 83 3 0 -13 -19 -34 -43z m-4115 -23 c-13 -14 -33 -30 -44 -35
-11 -6 -2 6 19 26 46 41 60 46 25 9z m4674 -179 c-3 -9 -8 -14 -10 -11 -3 3
-2 9 2 15 9 16 15 13 8 -4z m-5653 -48 c0 -2 -10 -12 -22 -23 l-23 -19 19 23
c18 21 26 27 26 19z m-542 -35 c-26 -38 -79 -94 -84 -89 -2 2 16 27 42 56 46
51 67 67 42 33z m5278 -55 c-27 -23 -92 -79 -144 -125 -56 -49 -136 -105 -196
-139 -56 -31 -139 -79 -186 -108 -98 -59 -139 -82 -125 -67 6 6 75 48 155 95
221 129 274 165 373 252 124 108 157 135 165 134 4 0 -15 -19 -42 -42z m-4796
30 c0 -1 -28 -29 -62 -62 l-63 -60 60 63 c55 58 65 67 65 59z m5872 -39 c-8
-8 -9 -4 -5 13 4 13 8 18 11 10 2 -7 -1 -18 -6 -23z m126 -18 c-6 -25 -13 -52
-16 -60 -3 -8 -6 -22 -7 -30 -3 -21 -93 -207 -109 -223 -6 -6 -18 -26 -26 -42
-35 -72 -141 -234 -214 -329 -92 -117 -377 -405 -486 -492 -79 -62 -255 -181
-380 -256 -41 -25 -117 -71 -168 -102 -52 -32 -96 -56 -98 -53 -2 2 32 26 76
53 45 27 116 73 158 101 42 29 115 76 162 104 129 78 161 105 388 321 139 133
207 209 336 374 135 171 200 273 256 401 24 54 58 128 76 164 19 37 38 79 44
94 16 41 20 26 8 -25z m-142 -26 c-4 -9 -9 -15 -11 -12 -3 3 -3 13 1 22 4 9 9
15 11 12 3 -3 3 -13 -1 -22z m-6456 -14 c0 -5 -5 -10 -11 -10 -5 0 -7 5 -4 10
3 6 8 10 11 10 2 0 4 -4 4 -10z m6432 -49 c-6 -14 -7 -14 -10 2 -3 15 -6 15
-24 -5 -16 -19 -16 -17 2 10 16 24 25 30 30 21 5 -7 5 -19 2 -28z m-63 -105
c-30 -42 -59 -74 -66 -71 -14 5 -37 -21 -29 -33 3 -5 -12 -31 -32 -59 -20 -27
-52 -71 -71 -97 -19 -25 -36 -53 -37 -61 -9 -62 -216 -281 -419 -443 -66 -52
-137 -110 -158 -129 -20 -18 -46 -33 -57 -33 -10 0 -32 -13 -49 -29 -16 -15
-55 -44 -87 -63 -318 -189 -328 -194 -524 -276 -103 -43 -169 -64 -115 -37 17
8 98 46 181 83 150 68 437 231 524 298 25 18 55 38 67 43 12 6 63 46 113 91
51 44 111 90 134 101 47 24 267 243 340 339 33 44 -12 2 -139 -128 -103 -106
-190 -190 -193 -188 -3 3 64 77 149 163 188 193 313 339 303 354 -4 7 -3 9 3
6 13 -8 37 19 29 32 -4 5 -1 13 5 17 8 5 9 3 4 -6 -5 -9 -4 -11 4 -6 6 4 9 12
5 17 -3 6 0 18 8 27 8 9 23 34 33 55 25 48 68 102 58 72 -4 -11 -18 -37 -31
-58 -14 -20 -23 -40 -20 -43 6 -5 78 90 78 103 0 10 33 44 38 39 2 -3 -20 -39
-49 -80z m-4899 -71 c-24 -25 -49 -45 -55 -45 -9 0 84 89 95 90 2 0 -16 -20
-40 -45z m182 23 c-7 -7 -12 -8 -12 -2 0 14 12 26 19 19 2 -3 -1 -11 -7 -17z
m35 -10 c-3 -8 -6 -5 -6 6 -1 11 2 17 5 13 3 -3 4 -12 1 -19z m-57 -7 c0 -11
-4 -23 -10 -26 -6 -4 -10 5 -10 19 0 14 5 26 10 26 6 0 10 -9 10 -19z m-37
-30 c3 -13 -5 -26 -24 -40 -32 -24 -38 -22 -13 3 9 9 17 24 19 34 4 22 4 22 9
22 2 0 6 -9 9 -19z m-808 -38 c-22 -15 -80 -60 -128 -101 -48 -41 -90 -72 -92
-70 -9 9 228 198 248 198 6 0 -6 -12 -28 -27z m615 8 c0 -5 -16 -19 -35 -32
-20 -13 -38 -34 -41 -46 -4 -13 -10 -21 -14 -18 -13 8 -131 -103 -254 -240
-25 -27 -46 -45 -46 -38 0 6 23 34 52 62 62 61 52 67 -16 11 -26 -22 -51 -40
-54 -40 -11 0 35 44 78 73 25 17 90 72 145 123 82 76 170 150 183 153 1 1 2
-3 2 -8z m5 -41 c-16 -16 -34 -30 -39 -30 -10 1 53 59 63 60 3 0 -8 -13 -24
-30z m-605 6 c0 -2 -24 -23 -52 -46 l-53 -42 48 46 c46 43 57 51 57 42z m710
-20 c0 -8 -10 -18 -22 -21 -41 -12 -85 -34 -98 -50 -13 -16 -30 -20 -30 -7 0
4 18 17 41 30 22 13 42 29 45 37 3 8 12 11 19 9 7 -3 16 -1 20 5 9 16 25 13
25 -3z m3215 -56 c-3 -5 -12 -10 -18 -10 -7 0 -6 4 3 10 19 12 23 12 15 0z
m315 -59 c-78 -65 -538 -312 -578 -311 -4 0 58 33 138 74 176 89 360 192 419
234 55 40 68 41 21 3z m-4086 -49 c-38 -38 -96 -99 -129 -136 -33 -37 -77 -85
-98 -108 -21 -22 -44 -53 -53 -69 -17 -35 -24 -37 -16 -6 10 39 153 202 289
330 86 80 91 72 7 -11z m3846 23 c0 -6 -141 -77 -146 -73 -2 3 134 77 144 78
1 0 2 -2 2 -5z m-3561 -46 c-77 -72 -226 -192 -261 -210 -20 -10 -41 -26 -46
-35 -6 -12 -16 -15 -28 -10 -18 7 -18 8 -2 17 9 5 15 15 12 22 -5 13 52 87 67
87 17 0 9 -27 -16 -50 -36 -33 -31 -45 7 -18 46 32 221 170 233 184 11 12 57
44 63 44 2 0 -11 -14 -29 -31z m-60 -12 c-2 -1 -13 -9 -24 -17 -19 -14 -19
-14 -6 3 7 9 18 17 24 17 6 0 8 -1 6 -3z m3431 -37 c-8 -5 -19 -10 -25 -10 -5
0 -3 5 5 10 8 5 20 10 25 10 6 0 3 -5 -5 -10z m1118 -60 c-42 -39 -103 -91
-135 -117 -32 -26 -77 -62 -100 -81 -24 -19 -43 -32 -43 -29 0 4 64 60 288
250 83 69 77 58 -10 -23z m-2774 -37 c14 -24 23 -43 18 -43 -5 0 -17 17 -27
38 -37 71 -33 72 9 5z m1736 -88 c-14 -8 -29 -14 -35 -14 -5 0 1 6 15 14 14 8
30 14 35 14 6 0 -1 -6 -15 -14z m-3780 -44 c0 -8 -22 -18 -60 -26 -8 -2 -4 5
10 15 27 21 50 26 50 11z m-100 -64 c0 -2 -11 -14 -25 -27 -14 -13 -25 -21
-25 -17 0 3 10 15 22 27 21 19 28 24 28 17z m4630 0 c0 -2 -17 -19 -37 -38
l-38 -34 34 38 c33 34 41 42 41 34z m-680 -47 c-8 -5 -19 -10 -25 -10 -5 0 -3
5 5 10 8 5 20 10 25 10 6 0 3 -5 -5 -10z m-64 -27 c-43 -23 -96 -44 -96 -38 0
6 100 53 115 54 6 0 -3 -7 -19 -16z m664 3 c0 -2 -8 -10 -17 -17 -16 -13 -17
-12 -4 4 13 16 21 21 21 13z m-41 -39 c-2 -1 -13 -9 -24 -17 -19 -14 -19 -14
-6 3 7 9 18 17 24 17 6 0 8 -1 6 -3z m-749 -22 c-14 -8 -32 -14 -40 -14 -8 0
-1 6 15 14 40 18 57 18 25 0z m700 -10 c0 -2 -10 -9 -22 -15 -22 -11 -22 -10
-4 4 21 17 26 19 26 11z m-773 -21 c-3 -3 -12 -4 -19 -1 -8 3 -5 6 6 6 11 1
17 -2 13 -5z m1233 -8 c0 -3 -15 -14 -32 -26 l-33 -22 28 26 c27 25 37 31 37
22z m-1275 -145 c-13 -11 -74 -31 -94 -31 -9 1 7 9 34 19 59 22 73 24 60 12z
m-518 -127 c-3 -3 -12 -4 -19 -1 -8 3 -5 6 6 6 11 1 17 -2 13 -5z m603 -234
c0 -5 -8 -10 -17 -10 -15 0 -16 2 -3 10 19 12 20 12 20 0z m-70 -15 c-19 -7
-46 -13 -60 -13 -16 0 -10 4 20 12 60 18 84 18 40 1z m40 -95 c0 -5 -10 -10
-22 -9 -22 0 -22 1 -3 9 11 5 21 9 23 9 1 1 2 -3 2 -9z m-3976 -917 c8 -9
-130 -63 -161 -63 -13 0 -22 -5 -20 -11 1 -6 -29 -19 -68 -29 -62 -15 -105
-30 -170 -60 -53 -24 -175 -73 -215 -87 -24 -8 -76 -30 -115 -48 -38 -18 -80
-36 -92 -39 -13 -4 -23 -12 -23 -17 0 -5 -9 -9 -20 -9 -11 0 -20 -4 -20 -9 0
-5 -13 -12 -30 -16 -16 -4 -34 -14 -39 -23 -5 -9 -13 -14 -16 -10 -16 16 -454
-242 -530 -312 -16 -15 -61 -47 -100 -71 -95 -59 -162 -108 -280 -207 -55 -46
-111 -93 -125 -105 -94 -77 -195 -176 -273 -266 -141 -165 -165 -184 -63 -51
53 70 439 460 455 460 5 0 16 6 23 13 16 16 151 118 227 171 31 22 76 54 100
73 24 18 50 33 57 33 14 0 168 93 199 120 20 18 138 93 220 140 24 14 48 30
52 34 10 11 -247 -122 -267 -139 -8 -6 -58 -36 -110 -65 -52 -29 -108 -62
-124 -74 -16 -11 -26 -15 -22 -8 14 23 -7 12 -118 -61 -106 -70 -296 -228
-436 -361 -162 -156 -166 -141 -5 20 190 188 312 294 398 346 29 17 59 37 67
44 22 18 169 94 182 94 6 0 47 21 92 47 396 230 819 411 1151 493 94 24 177
46 185 51 19 10 25 11 34 2z m-169 -360 c-11 -3 -24 -9 -30 -13 -5 -4 -23 -10
-40 -13 -16 -3 -39 -9 -50 -13 -15 -5 -17 -4 -9 5 13 14 91 39 124 39 20 0 21
-1 5 -5z m35 -27 c-29 -15 -88 -31 -78 -21 8 8 79 34 93 34 6 0 -1 -6 -15 -13z
m4417 -126 c1 -11 -2 -18 -8 -15 -5 4 -9 1 -9 -6 0 -7 -2 -10 -5 -8 -6 7 6 49
14 49 4 0 7 -9 8 -20z m-5397 -43 c0 -2 -10 -12 -22 -23 l-23 -19 19 23 c18
21 26 27 26 19z m399 -12 c-3 -2 -50 -27 -104 -55 -227 -117 -290 -152 -293
-161 -5 -11 -22 -12 -22 -1 0 10 153 96 300 169 94 46 132 62 119 48z m-530
-62 c-30 -20 -101 -71 -159 -113 -58 -42 -152 -105 -210 -139 -58 -35 -107
-66 -110 -70 -3 -4 -18 -15 -35 -25 -16 -11 -50 -38 -75 -61 -25 -24 -61 -53
-80 -66 -20 -13 -35 -28 -35 -34 0 -5 -21 -21 -48 -36 -26 -14 -72 -47 -102
-73 -30 -26 -55 -44 -55 -40 0 12 77 81 129 116 25 18 96 73 156 123 105 87
159 128 197 150 9 6 90 59 180 120 186 125 279 184 292 185 4 0 -16 -17 -45
-37z m5251 -13 c-6 -11 -13 -20 -16 -20 -2 0 0 9 6 20 6 11 13 20 16 20 2 0 0
-9 -6 -20z m-190 -24 c0 -2 -8 -10 -17 -17 -16 -13 -17 -12 -4 4 13 16 21 21
21 13z m-5400 -41 c-7 -8 -17 -15 -23 -15 -6 0 -2 7 9 15 25 19 30 19 14 0z
m930 -20 c0 -2 -13 -11 -30 -20 -38 -19 -40 -11 -2 9 31 17 32 18 32 11z
m4420 1 c0 -2 -8 -10 -17 -17 -16 -13 -17 -12 -4 4 13 16 21 21 21 13z m-4500
-41 c0 -8 -62 -37 -67 -31 -3 3 10 12 28 20 42 18 39 17 39 11z m-91 -61 c-12
-14 -61 -44 -74 -44 -11 0 37 41 58 50 31 12 31 12 16 -6z m4641 -27 l-34 -32
30 36 c16 20 31 34 33 32 3 -2 -10 -18 -29 -36z m-5066 3 c-6 -6 -72 -55 -147
-108 -204 -146 -327 -240 -379 -291 -27 -25 -48 -42 -48 -37 0 5 15 22 33 38
121 110 618 475 541 398z m5041 -158 c-33 -31 -82 -73 -108 -92 -27 -19 -63
-47 -80 -61 -18 -15 -42 -29 -53 -33 -12 -4 -29 -15 -39 -26 -10 -11 -24 -20
-32 -20 -7 0 2 14 20 30 19 17 40 30 47 30 6 0 30 16 53 35 22 19 45 35 51 35
6 0 52 36 101 80 50 44 92 80 95 80 3 0 -22 -26 -55 -58z m-5479 13 c-8 -8
-27 -20 -43 -26 -31 -12 -26 -4 14 22 35 22 49 24 29 4z m27 -26 c-6 -6 -33
-27 -61 -47 -28 -21 -105 -86 -171 -145 -124 -111 -171 -137 -58 -32 34 32 87
81 117 110 62 58 128 109 150 118 25 9 35 8 23 -4z m6047 -72 c0 -7 13 -38 29
-71 l29 -59 -29 -51 c-16 -28 -46 -82 -66 -121 -39 -76 -86 -144 -207 -299
-155 -197 -273 -310 -531 -507 -71 -54 -143 -110 -160 -123 -40 -33 -171 -114
-275 -172 -47 -26 -122 -73 -167 -106 -45 -32 -113 -73 -150 -89 -110 -49
-220 -103 -533 -258 -163 -80 -317 -155 -343 -165 -32 -13 -47 -25 -47 -38 0
-10 7 -18 18 -18 9 0 85 33 167 75 83 41 164 77 180 79 17 1 71 26 120 55 50
28 178 95 285 147 107 52 212 104 233 116 55 29 56 16 2 -18 -26 -16 -42 -30
-37 -32 17 -5 70 33 111 80 34 39 164 128 187 128 4 0 28 13 53 28 25 16 78
41 116 57 55 23 86 45 143 102 40 40 77 73 83 73 6 0 25 11 42 24 18 14 58 35
89 46 31 12 71 37 90 56 18 19 56 48 83 66 110 71 222 171 288 258 23 30 44
57 47 60 30 27 49 64 39 76 -8 10 -5 11 10 7 13 -3 21 -1 21 7 0 21 48 78 78
92 20 10 42 43 84 128 70 139 78 153 84 147 3 -3 1 -13 -5 -24 -6 -10 -46 -93
-89 -184 -44 -92 -94 -188 -112 -215 -35 -52 -238 -264 -252 -264 -5 0 -30
-20 -56 -45 -26 -25 -87 -78 -136 -118 -49 -40 -114 -93 -145 -118 -32 -26
-75 -56 -97 -67 -44 -24 -126 -80 -239 -166 -43 -32 -97 -70 -121 -85 -180
-111 -300 -181 -311 -181 -7 0 -34 -13 -60 -29 -27 -16 -77 -42 -113 -57 -36
-15 -72 -33 -81 -41 -8 -7 -24 -13 -33 -13 -10 0 -46 -15 -79 -34 -34 -18 -80
-39 -102 -46 -45 -15 -252 -117 -275 -137 -9 -7 -46 -22 -83 -33 -36 -11 -69
-25 -72 -30 -4 -6 -11 -8 -16 -5 -5 4 -44 -12 -87 -34 -116 -60 -161 -78 -232
-96 -36 -9 -231 -72 -435 -140 -328 -110 -658 -205 -710 -205 -10 0 -32 -4
-49 -10 -66 -21 -484 -88 -593 -95 -23 -1 -63 -8 -90 -14 -148 -33 -247 -41
-566 -48 -434 -8 -531 3 -742 82 -98 36 -296 130 -255 120 14 -3 41 -8 60 -11
19 -3 76 -12 125 -19 143 -22 273 -28 375 -16 52 5 163 11 245 11 83 1 188 7
235 15 47 8 135 21 195 30 61 9 175 30 255 46 80 16 215 43 300 59 85 17 214
46 285 66 72 19 209 55 305 80 96 24 195 53 220 64 25 11 74 30 110 44 36 13
94 37 130 54 36 17 85 35 110 41 58 13 149 43 275 91 55 21 154 57 219 79 65
23 144 54 175 70 31 16 101 48 157 71 55 22 117 52 137 65 20 14 43 25 51 25
8 0 25 10 37 23 12 12 19 16 15 10 -11 -19 4 -15 49 12 22 14 45 25 51 25 6 0
95 47 199 105 103 57 192 102 197 99 12 -8 -25 -34 -114 -78 -46 -23 -75 -43
-71 -49 5 -8 8 -7 11 1 2 7 11 12 20 12 21 0 240 113 261 135 15 15 14 16 -4
10 -16 -5 -17 -5 -5 3 8 6 18 8 23 5 13 -8 78 40 72 54 -2 7 -1 12 3 11 16 -3
281 135 331 173 30 23 77 55 105 72 28 17 71 47 96 67 25 20 52 41 61 46 9 5
70 59 135 121 66 61 145 130 177 152 95 67 185 161 251 261 60 92 111 173 130
210 5 10 18 23 29 29 15 10 17 10 12 0 -5 -7 -3 -10 6 -7 8 3 19 15 25 27 7
13 17 28 23 34 7 7 7 14 0 24 -15 17 -29 16 -51 -4 -10 -9 -20 -14 -23 -12 -7
8 39 137 48 132 4 -2 7 -10 7 -16z m-1050 -1 c0 -2 -8 -10 -17 -17 -16 -13
-17 -12 -4 4 13 16 21 21 21 13z m330 -86 c0 -5 -5 -10 -11 -10 -5 0 -7 5 -4
10 3 6 8 10 11 10 2 0 4 -4 4 -10z m80 -34 c0 -2 -8 -10 -17 -17 -16 -13 -17
-12 -4 4 13 16 21 21 21 13z m-5760 -26 c-14 -11 -74 -69 -134 -128 -60 -59
-101 -96 -93 -83 26 39 153 168 198 201 47 33 68 41 29 10z m5059 -14 c-2 -2
-15 -9 -29 -15 -24 -11 -24 -11 -6 3 16 13 49 24 35 12z m-5367 -38 c-7 -7
-12 -8 -12 -2 0 14 12 26 19 19 2 -3 -1 -11 -7 -17z m5516 -28 c-14 -22 -38
-35 -38 -20 0 7 38 40 47 40 2 0 -2 -9 -9 -20z m842 6 c0 -2 -8 -10 -17 -17
-16 -13 -17 -12 -4 4 13 16 21 21 21 13z m-5900 -9 c0 -2 -17 -19 -37 -38 -22
-20 -30 -24 -18 -9 25 31 55 57 55 47z m-167 -21 c-15 -24 -143 -160 -147
-155 -2 2 27 38 65 79 37 41 69 78 69 83 0 4 5 7 10 7 7 0 8 -6 3 -14z m5127
9 c0 -6 -125 -75 -136 -75 -7 0 125 79 134 80 1 0 2 -2 2 -5z m1080 -13 c0 -4
-15 -20 -34 -37 -18 -16 -41 -46 -51 -65 -17 -34 -140 -160 -156 -160 -5 0 12
21 37 46 25 26 52 63 60 83 18 43 49 78 87 97 15 8 27 23 27 34 0 13 5 18 15
14 8 -4 15 -9 15 -12z m-1330 -27 c0 -2 -10 -9 -22 -15 -22 -11 -22 -10 -4 4
21 17 26 19 26 11z m480 0 c0 -2 -10 -10 -22 -16 -21 -11 -22 -11 -9 4 13 16
31 23 31 12z m874 -22 c-10 -16 -29 -48 -41 -72 -12 -24 -28 -50 -34 -57 -6
-8 -19 -29 -28 -46 -9 -18 -23 -33 -31 -35 -10 -3 -9 -1 3 7 9 6 17 18 17 27
0 10 11 33 23 52 13 20 39 62 58 94 18 31 37 57 42 57 5 0 1 -12 -9 -27z
m-5974 14 c0 -2 -10 -12 -22 -23 l-23 -19 19 23 c18 21 26 27 26 19z m-650
-41 c0 -2 -8 -10 -17 -17 -16 -13 -17 -12 -4 4 13 16 21 21 21 13z m5180 0 c0
-2 -7 -7 -16 -10 -8 -3 -12 -2 -9 4 6 10 25 14 25 6z m170 -1 c0 -2 -22 -16
-50 -30 -27 -14 -50 -23 -50 -20 0 2 21 16 48 29 53 28 52 28 52 21z m-4766
-19 c-3 -8 -13 -17 -22 -21 -13 -5 -13 -2 3 15 21 24 26 25 19 6z m5021 -6
c-27 -12 -43 -12 -25 0 8 5 22 9 30 9 10 0 8 -3 -5 -9z m-5385 -90 c-12 -16
-24 -30 -26 -30 -3 0 3 14 13 30 9 17 21 30 26 30 5 0 -1 -13 -13 -30z m692
-10 c-42 -39 -62 -49 -62 -31 0 11 79 69 95 70 6 0 -9 -17 -33 -39z m4254 25
c-11 -8 -25 -15 -30 -15 -6 1 0 7 14 15 32 19 40 18 16 0z m-4536 2 c0 -2 -10
-12 -22 -23 l-23 -19 19 23 c18 21 26 27 26 19z m4859 -30 c-2 -1 -13 -9 -24
-17 -19 -14 -19 -14 -6 3 7 9 18 17 24 17 6 0 8 -1 6 -3z m-5358 -108 c-27
-41 -66 -90 -87 -109 -35 -33 -36 -33 -15 -5 12 17 49 64 81 105 33 41 60 79
60 84 0 5 2 7 5 4 3 -3 -17 -39 -44 -79z m4879 47 c0 -2 -7 -7 -16 -10 -8 -3
-12 -2 -9 4 6 10 25 14 25 6z m1321 -15 c-6 -10 -20 -25 -33 -34 -13 -8 -63
-54 -113 -102 -49 -48 -113 -104 -142 -124 -331 -231 -378 -261 -394 -250 -12
8 -12 10 0 18 8 5 20 7 26 5 7 -3 31 14 53 36 22 23 45 39 50 36 6 -3 22 7 35
24 14 16 32 30 39 30 14 0 43 19 77 50 9 8 35 27 58 42 22 15 64 49 91 75 27
26 73 66 102 88 28 22 75 59 103 82 60 49 61 49 48 24z m-5976 -31 c-16 -16
-31 -28 -34 -25 -2 3 8 19 24 35 16 16 31 28 34 25 2 -3 -8 -19 -24 -35z m413
-17 c-26 -26 -49 -45 -52 -42 -7 7 73 89 87 89 7 0 -9 -21 -35 -47z m4146 12
c-10 -8 -23 -14 -29 -14 -5 0 -1 6 9 14 11 8 24 15 30 15 5 0 1 -7 -10 -15z
m201 -21 c9 -9 13 -19 10 -22 -3 -3 -15 4 -27 16 -13 12 -17 22 -11 22 6 0 19
-7 28 -16z m215 8 c0 -5 -12 -15 -27 -23 -47 -23 -49 -22 -13 4 40 30 40 30
40 19z m-465 -12 c-3 -5 -12 -10 -18 -10 -7 0 -6 4 3 10 19 12 23 12 15 0z
m-4174 -27 c-11 -20 -53 -60 -126 -119 -116 -93 -81 -48 51 67 44 37 80 68 82
68 1 1 -2 -7 -7 -16z m5933 -18 c-4 -8 -14 -15 -23 -15 -14 1 -13 3 3 15 25
19 27 19 20 0z m-339 -34 c2 -12 0 -19 -4 -17 -4 3 -14 -6 -21 -19 -18 -34
-167 -175 -185 -175 -8 0 -15 -4 -15 -9 0 -5 -7 -11 -15 -15 -27 -10 -16 21
14 41 62 39 181 148 176 161 -3 8 0 10 6 6 7 -4 10 -1 7 6 -2 8 3 21 11 30 19
20 20 19 26 -9z m-1355 -30 c0 -5 -7 -14 -15 -21 -12 -10 -15 -10 -15 2 0 8 3
18 7 21 9 10 23 9 23 -2z m1575 -53 c-28 -33 -106 -104 -140 -127 -11 -7 21
26 70 73 50 47 92 86 93 86 2 0 -8 -14 -23 -32z m36 -26 c-25 -20 -59 -51 -77
-68 -26 -25 -32 -27 -31 -12 1 10 6 18 12 18 5 1 35 23 65 50 30 28 60 50 65
49 6 0 -10 -17 -34 -37z m-631 -46 c0 -3 -4 -8 -10 -11 -5 -3 -10 -1 -10 4 0
6 5 11 10 11 6 0 10 -2 10 -4z m-130 -61 c7 -9 10 -18 7 -22 -8 -7 -37 15 -37
28 0 14 16 11 30 -6z m552 -42 c-25 -35 -66 -73 -112 -103 -19 -13 -47 -35
-62 -48 -16 -14 -28 -21 -28 -14 0 6 42 45 93 86 52 41 100 82 107 91 21 26
23 17 2 -12z m-391 -27 c-6 -7 -30 -27 -54 -42 -23 -16 -46 -34 -52 -41 -13
-15 -86 -55 -92 -50 -2 3 13 15 34 28 21 13 67 45 102 71 66 49 82 58 62 34z
m59 4 c0 -5 -5 -10 -11 -10 -5 0 -7 5 -4 10 3 6 8 10 11 10 2 0 4 -4 4 -10z
m-410 -54 c0 -3 -4 -8 -10 -11 -5 -3 -10 -1 -10 4 0 6 5 11 10 11 6 0 10 -2
10 -4z m40 -61 c-6 -8 -33 -26 -58 -41 -45 -26 -144 -89 -206 -130 -66 -44
-82 -53 -93 -53 -7 -1 -1 11 14 25 15 16 31 23 41 19 9 -3 13 -3 9 1 -11 11
23 43 39 37 8 -3 14 0 14 6 0 6 5 11 11 11 16 0 127 80 133 96 3 8 16 14 29
14 13 0 32 7 43 15 25 19 40 19 24 0z m230 5 c-8 -5 -19 -10 -25 -10 -5 0 -3
5 5 10 8 5 20 10 25 10 6 0 3 -5 -5 -10z m-1919 -160 c-13 -11 -28 -20 -35
-20 -6 0 3 9 19 20 38 25 47 25 16 0z m1625 11 c-4 -5 -34 -26 -69 -46 -34
-20 -78 -45 -97 -57 l-35 -20 30 25 c17 15 44 33 60 41 17 9 48 27 70 40 45
28 49 30 41 17z m-1856 -50 c0 -5 -9 -12 -19 -16 -11 -3 -36 -17 -56 -31 -37
-25 -105 -56 -105 -49 0 9 156 103 173 104 4 1 7 -3 7 -8z m1515 -41 c-3 -5
-13 -10 -21 -10 -8 0 -12 5 -9 10 3 6 13 10 21 10 8 0 12 -4 9 -10z m35 -4 c0
-2 -7 -7 -16 -10 -8 -3 -12 -2 -9 4 6 10 25 14 25 6z m-85 -35 c19 -8 18 -9
-7 -21 -16 -7 -28 -17 -28 -22 0 -5 -4 -7 -10 -3 -5 3 -50 -15 -99 -41 -49
-25 -95 -43 -101 -39 -6 4 -22 -5 -35 -19 -24 -26 -58 -38 -37 -13 6 6 10 15
9 19 -2 7 269 146 283 147 3 0 14 -4 25 -8z m135 -36 c-7 -8 -19 -15 -27 -15
-8 0 -11 -4 -8 -10 3 -5 4 -10 1 -10 -19 0 -12 22 11 34 36 19 38 19 23 1z
m-1991 1 c-14 -13 -112 -66 -123 -66 -7 0 -44 -16 -81 -35 -37 -20 -70 -34
-72 -31 -5 5 11 14 157 88 52 26 101 48 109 48 8 0 12 -2 10 -4z m-3199 -149
c0 -15 7 -39 16 -52 9 -14 12 -25 8 -26 -5 0 -20 -2 -34 -4 -14 -2 -19 -1 -12
2 9 3 5 12 -13 30 -14 14 -25 31 -25 37 0 6 4 5 9 -3 6 -9 11 3 16 40 7 51 8
52 21 28 7 -13 13 -37 14 -52z m4555 -38 c-322 -153 -350 -166 -430 -198 -44
-18 -118 -48 -165 -66 -47 -18 -134 -54 -195 -79 -60 -25 -118 -46 -129 -46
-10 0 -59 -16 -108 -36 -103 -41 -197 -74 -211 -74 -5 0 -4 6 2 14 7 8 45 24
84 36 102 31 160 52 176 64 8 6 91 39 185 72 321 115 367 133 438 169 40 20
79 38 87 40 23 5 297 127 356 158 27 15 57 27 65 27 8 0 -61 -36 -155 -81z
m-4500 -87 c-3 -3 -13 2 -23 11 -15 16 -15 19 -2 27 11 7 17 4 23 -12 4 -11 5
-23 2 -26z m3583 -214 c-3 -7 -31 -18 -64 -25 -33 -7 -81 -21 -108 -32 -26
-12 -55 -21 -65 -21 -9 0 -33 -9 -54 -19 -20 -10 -37 -15 -37 -10 0 11 141 79
166 80 10 0 48 9 84 19 81 23 83 23 78 8z m-508 -347 c-8 -5 -33 -12 -55 -15
l-40 -6 35 14 c40 17 85 21 60 7z m-197 -48 c-7 -2 -21 -2 -30 0 -10 3 -4 5
12 5 17 0 24 -2 18 -5z m-184 -37 c-2 -2 -17 -6 -34 -10 -22 -5 -26 -4 -15 4
14 9 59 15 49 6z m291 -366 c0 -5 -4 -10 -10 -10 -5 0 -10 5 -10 10 0 6 5 10
10 10 6 0 10 -4 10 -10z m-2305 -50 c3 -5 2 -10 -4 -10 -5 0 -13 5 -16 10 -3
6 -2 10 4 10 5 0 13 -4 16 -10z"/>
<path d="M8647 11743 c-12 -12 -7 -22 8 -17 8 4 15 10 15 15 0 11 -14 12 -23
2z"/>
<path d="M9990 11125 c-32 -18 -5 -19 35 0 23 10 25 13 10 14 -11 0 -31 -6
-45 -14z"/>
<path d="M9700 10980 c-8 -5 -10 -10 -5 -10 6 0 17 5 25 10 8 5 11 10 5 10 -5
0 -17 -5 -25 -10z"/>
<path d="M9629 10971 c7 -5 10 -14 7 -20 -4 -6 -3 -11 3 -11 5 0 13 5 17 11 7
11 -12 29 -31 29 -5 0 -4 -4 4 -9z"/>
<path d="M9643 10895 c-15 -17 -3 -27 17 -15 10 6 11 12 5 19 -6 6 -14 4 -22
-4z"/>
<path d="M9204 10785 c-10 -8 -14 -14 -9 -14 6 0 19 6 29 14 11 8 15 15 10 15
-6 0 -19 -7 -30 -15z"/>
<path d="M9187 10740 c-3 -13 0 -20 9 -20 15 0 19 26 5 34 -5 3 -11 -3 -14
-14z"/>
<path d="M9110 10740 c-9 -6 -10 -10 -3 -10 6 0 15 5 18 10 8 12 4 12 -15 0z"/>
<path d="M9070 10680 c-9 -6 -10 -10 -3 -10 6 0 15 5 18 10 8 12 4 12 -15 0z"/>
<path d="M8132 10199 c-36 -24 -37 -38 -1 -18 28 14 54 39 42 39 -4 0 -23 -10
-41 -21z"/>
<path d="M7895 10110 c-11 -4 -42 -29 -70 -55 l-50 -47 40 21 c43 21 127 90
110 90 -5 0 -19 -4 -30 -9z"/>
<path d="M8051 10104 c-18 -8 -31 -17 -29 -20 7 -7 55 13 63 25 7 13 9 13 -34
-5z"/>
<path d="M7874 9994 c-43 -31 -72 -54 -63 -51 21 7 159 95 159 102 0 13 -22 1
-96 -51z"/>
<path d="M7670 9962 c-97 -66 -104 -71 -98 -78 7 -6 75 40 131 88 44 38 32 34
-33 -10z"/>
<path d="M7419 9798 c-39 -35 -94 -79 -123 -100 -51 -35 -100 -83 -66 -63 8 5
33 21 56 36 22 15 78 45 125 68 46 22 98 54 114 72 l30 33 -35 -25 c-58 -42
-130 -80 -130 -70 0 5 26 32 58 60 31 28 54 51 50 51 -4 0 -40 -28 -79 -62z"/>
<path d="M6755 9270 c-3 -5 -2 -10 4 -10 5 0 13 5 16 10 3 6 2 10 -4 10 -5 0
-13 -4 -16 -10z"/>
<path d="M11118 8527 c-15 -12 -42 -33 -59 -47 -19 -14 -27 -26 -20 -28 7 -2
20 3 29 11 9 9 35 32 57 51 43 38 37 49 -7 13z"/>
<path d="M6630 9650 c-8 -5 -12 -12 -9 -15 4 -3 12 1 19 10 14 17 11 19 -10 5z"/>
<path d="M6136 10214 c-68 -50 -91 -74 -68 -74 8 0 152 119 152 126 0 8 -10 2
-84 -52z"/>
<path d="M4635 6485 c-16 -14 -25 -25 -19 -25 6 0 21 11 34 25 30 32 24 31
-15 0z"/>
<path d="M10449 5396 c-31 -35 -79 -110 -52 -81 29 31 95 116 92 119 -2 1 -20
-16 -40 -38z"/>
<path d="M10299 5203 c-13 -16 -12 -17 4 -4 9 7 17 15 17 17 0 8 -8 3 -21 -13z"/>
<path d="M8708 4453 c-51 -29 -58 -41 -12 -21 32 14 82 48 68 47 -5 0 -30 -12
-56 -26z"/>
<path d="M8873 4292 c-18 -9 -33 -20 -33 -26 0 -6 5 -5 12 2 7 7 20 12 29 12
9 0 22 7 29 15 15 18 5 17 -37 -3z"/>
<path d="M8673 4194 c-100 -53 -102 -63 -3 -14 94 48 98 50 82 50 -5 0 -41
-16 -79 -36z"/>
<path d="M8406 4068 c-21 -10 -36 -21 -33 -24 7 -7 52 13 66 30 16 19 16 19
-33 -6z"/>
<path d="M8088 4003 c7 -3 16 -2 19 1 4 3 -2 6 -13 5 -11 0 -14 -3 -6 -6z"/>
<path d="M7595 3850 c-3 -6 1 -7 9 -4 18 7 21 14 7 14 -6 0 -13 -4 -16 -10z"/>
<path d="M6595 7088 c-58 -21 -69 -27 -40 -23 51 7 147 36 160 47 18 16 -41 5
-120 -24z"/>
<path d="M6783 6962 c-23 -9 -45 -21 -50 -26 -4 -5 -3 -7 2 -3 6 3 17 2 25 -3
9 -6 18 -3 26 8 6 9 27 22 45 28 22 8 27 13 14 13 -11 0 -39 -8 -62 -17z"/>
<path d="M6675 6660 l-20 -9 20 0 c11 0 27 4 35 9 13 9 13 10 0 9 -8 0 -24 -4
-35 -9z"/>
<path d="M6485 6640 c-124 -12 -340 -64 -445 -108 -52 -22 -126 -50 -165 -62
-77 -25 -250 -108 -242 -116 3 -3 43 12 89 34 45 22 101 45 123 52 22 7 96 35
165 62 133 53 368 110 499 122 40 3 81 11 90 16 19 11 8 11 -114 0z"/>
<path d="M5164 6609 c-68 -36 -69 -37 -61 -45 3 -3 21 4 39 17 18 13 48 32 68
41 19 9 30 17 24 17 -6 1 -38 -13 -70 -30z"/>
<path d="M5225 6610 c-19 -8 -19 -9 2 -9 12 -1 25 4 28 9 7 12 -2 12 -30 0z"/>
<path d="M6615 6505 c-25 -9 -32 -14 -19 -14 12 -1 37 6 55 14 42 18 18 18
-36 0z"/>
<path d="M5600 6340 c-9 -6 -10 -10 -3 -10 6 0 15 5 18 10 8 12 4 12 -15 0z"/>
<path d="M5530 6185 c-23 -13 -23 -14 -4 -15 11 0 29 7 40 15 26 19 -1 20 -36
0z"/>
<path d="M5260 6060 c-19 -11 -31 -19 -27 -20 11 0 67 29 67 35 0 7 -1 7 -40
-15z"/>
<path d="M5061 5949 c-13 -5 -22 -11 -20 -14 8 -7 49 7 49 16 0 5 -1 9 -2 8
-2 0 -14 -5 -27 -10z"/>
<path d="M4809 5489 l-54 -51 52 42 c48 38 70 60 60 60 -2 0 -28 -23 -58 -51z"/>
<path d="M4678 5377 c-32 -29 -58 -57 -58 -61 0 -10 102 81 113 100 13 22 5
17 -55 -39z"/>
<path d="M4589 5333 c-13 -17 -13 -17 6 -3 11 8 22 16 24 17 2 2 0 3 -6 3 -6
0 -17 -8 -24 -17z"/>
<path d="M4499 5193 c-29 -31 -47 -54 -40 -52 14 5 108 109 99 109 -3 0 -29
-25 -59 -57z"/>
<path d="M4299 4983 c-13 -16 -12 -17 4 -4 16 13 21 21 13 21 -2 0 -10 -8 -17
-17z"/>
</g>
</svg>
